<?xml version="1.0" standalone="no"?>
<!DOCTYPE svg PUBLIC "-//W3C//DTD SVG 20010904//EN"
 "http://www.w3.org/TR/2001/REC-SVG-20010904/DTD/svg10.dtd">
<svg version="1.0" xmlns="http://www.w3.org/2000/svg"
 width="880.000000pt" height="881.000000pt" viewBox="0 0 880.000000 881.000000"
 preserveAspectRatio="xMidYMid meet">

<g transform="translate(0.000000,881.000000) scale(0.100000,-0.100000)"
fill="#000000" stroke="none">
<path d="M6060 8370 c-47 -16 -95 -29 -107 -30 -85 -1 -285 -101 -434 -216
-202 -155 -388 -391 -554 -699 -197 -368 -273 -505 -365 -655 -91 -148 -216
-361 -389 -660 -87 -150 -146 -258 -344 -630 -96 -181 -273 -501 -315 -570
-87 -143 -354 -545 -465 -700 -109 -153 -131 -183 -257 -350 -95 -126 -200
-249 -339 -395 -188 -197 -309 -341 -466 -550 -128 -172 -165 -224 -285 -405
-71 -106 -149 -252 -186 -345 -15 -38 -30 -74 -34 -80 -14 -18 -68 -199 -88
-295 -33 -151 -45 -300 -39 -460 4 -80 11 -158 17 -175 5 -16 20 -63 32 -104
36 -122 131 -249 253 -336 154 -110 411 -215 640 -261 39 -8 93 -19 120 -26
86 -21 379 -15 530 11 313 55 695 203 882 342 296 222 794 720 1316 1316 194
222 300 375 555 808 35 61 75 126 87 145 20 31 142 239 322 548 54 92 125 237
188 382 96 222 176 394 259 560 52 102 137 289 191 415 53 127 116 273 139
325 121 271 148 334 185 430 21 58 47 130 57 160 9 30 20 60 25 65 4 6 23 64
43 130 20 66 41 127 46 136 5 9 25 84 44 165 20 82 40 163 45 179 28 86 36
180 35 415 -1 248 -4 277 -49 480 -41 183 -191 418 -357 559 -174 148 -425
288 -638 356 -30 10 -61 22 -68 28 -7 5 -43 11 -80 13 -54 3 -83 -2 -152 -26z
m123 -37 c-7 -2 -21 -2 -30 0 -10 3 -4 5 12 5 17 0 24 -2 18 -5z m100 0 c-7
-2 -19 -2 -25 0 -7 3 -2 5 12 5 14 0 19 -2 13 -5z m-156 -9 c-3 -3 -12 -4 -19
-1 -8 3 -5 6 6 6 11 1 17 -2 13 -5z m213 -4 c18 -12 2 -12 -25 0 -13 6 -15 9
-5 9 8 0 22 -4 30 -9z m-333 -26 c-3 -3 -12 -4 -19 -1 -8 3 -5 6 6 6 11 1 17
-2 13 -5z m-90 -30 c-3 -3 -12 -4 -19 -1 -8 3 -5 6 6 6 11 1 17 -2 13 -5z
m603 -14 c8 -5 11 -10 5 -10 -5 0 -17 5 -25 10 -8 5 -10 10 -5 10 6 0 17 -5
25 -10z m-705 -20 c-3 -5 -12 -10 -18 -10 -7 0 -6 4 3 10 19 12 23 12 15 0z
m755 0 c8 -5 11 -10 5 -10 -5 0 -17 5 -25 10 -8 5 -10 10 -5 10 6 0 17 -5 25
-10z m50 -20 c8 -5 11 -10 5 -10 -5 0 -17 5 -25 10 -8 5 -10 10 -5 10 6 0 17
-5 25 -10z m-860 -5 c0 -2 -10 -9 -22 -15 -22 -11 -22 -10 -4 4 21 17 26 19
26 11z m273 -20 c33 -9 74 -12 96 -9 39 6 71 -12 71 -41 0 -16 -47 -55 -67
-55 -8 0 -28 -15 -46 -34 -18 -20 -47 -37 -67 -41 -19 -4 -68 -23 -110 -42
-41 -19 -95 -37 -120 -39 -39 -5 -49 -2 -79 24 l-35 29 30 24 c57 47 101 100
110 132 18 61 104 82 217 52z m-333 -20 c0 -2 -10 -9 -22 -15 -22 -11 -22 -10
-4 4 21 17 26 19 26 11z m1005 -5 c3 -6 -1 -7 -9 -4 -18 7 -21 14 -7 14 6 0
13 -4 16 -10z m80 -48 c-3 -3 -11 0 -18 7 -9 10 -8 11 6 5 10 -3 15 -9 12 -12z
m-1215 -36 c0 -2 -7 -9 -15 -16 -13 -11 -14 -10 -9 4 5 14 24 23 24 12z m1356
-57 c3 -6 -5 -3 -20 6 -14 10 -26 19 -26 22 0 7 39 -17 46 -28z m-1426 8 c0
-1 -26 -27 -57 -57 l-58 -55 55 58 c50 53 60 62 60 54z m946 -68 c23 -11 54
-36 69 -55 46 -60 112 -207 129 -286 3 -13 10 -40 15 -60 5 -21 7 -38 5 -38
-1 0 4 -16 12 -35 22 -53 17 -55 -13 -5 -42 72 -109 152 -165 201 -134 115
-224 163 -393 208 -65 17 -97 30 -79 30 16 1 34 5 40 10 12 11 67 30 134 47
74 18 191 10 246 -17z m554 -4 c19 -19 32 -35 29 -35 -3 0 -20 16 -39 35 -19
19 -32 35 -29 35 3 0 20 -16 39 -35z m-1630 -58 c0 -2 -12 -17 -26 -33 -27
-30 -23 -13 4 19 14 16 22 21 22 14z m1725 -37 c21 -22 37 -40 34 -40 -3 0
-23 18 -44 40 -21 22 -37 40 -34 40 3 0 23 -18 44 -40z m-1355 16 c0 -2 -7 -7
-16 -10 -8 -3 -12 -2 -9 4 6 10 25 14 25 6z m375 -32 c186 -53 335 -150 452
-294 85 -105 142 -275 105 -312 -25 -25 -58 8 -112 114 -84 167 -147 237 -270
306 -127 71 -337 111 -502 95 -59 -5 -68 -4 -74 12 -10 25 6 46 54 73 86 48
195 50 347 6z m1040 -54 c10 -11 16 -20 13 -20 -3 0 -13 9 -23 20 -10 11 -16
20 -13 20 3 0 13 -9 23 -20z m30 -40 c3 -5 1 -10 -4 -10 -6 0 -11 5 -11 10 0
6 2 10 4 10 3 0 8 -4 11 -10z m-1176 -45 c35 -4 98 -17 140 -30 172 -55 283
-153 369 -328 56 -114 95 -157 144 -157 26 0 29 -2 18 -15 -7 -8 -10 -15 -7
-15 3 0 -4 -33 -14 -72 -25 -92 -27 -101 -28 -112 -1 -4 -7 -6 -14 -3 -10 4
-12 -4 -10 -27 4 -28 2 -26 -21 18 -70 138 -200 206 -401 209 -94 2 -105 0
-162 -28 l-61 -30 -5 61 c-9 116 -81 207 -230 292 -40 23 -94 46 -122 53 -75
18 -84 21 -63 26 9 2 53 40 96 83 79 78 80 79 138 83 62 4 128 1 233 -8z
m1260 -110 c0 -5 -11 10 -24 35 -13 25 -24 50 -24 55 0 6 11 -10 24 -35 13
-25 24 -49 24 -55z m-2151 -50 c-6 -14 -13 -23 -15 -21 -5 5 15 46 22 46 3 0
-1 -11 -7 -25z m359 -11 c-3 -3 -12 -4 -19 -1 -8 3 -5 6 6 6 11 1 17 -2 13 -5z
m212 -89 c88 -46 162 -111 199 -174 23 -39 27 -57 27 -121 0 -66 -4 -83 -35
-144 -39 -77 -138 -183 -197 -211 -28 -14 -56 -16 -132 -13 -111 4 -163 25
-243 97 -61 55 -85 100 -98 189 -23 148 25 263 151 363 59 47 103 60 184 56
59 -3 83 -10 144 -42z m-609 31 c0 -2 -8 -10 -17 -17 -16 -13 -17 -12 -4 4 13
16 21 21 21 13z m240 -19 c0 -2 -17 -19 -37 -38 l-38 -34 34 38 c33 34 41 42
41 34z m2007 -29 c-3 -8 -6 -5 -6 6 -1 11 2 17 5 13 3 -3 4 -12 1 -19z m-608
-58 c0 -10 -3 -8 -9 5 -12 27 -12 43 0 25 5 -8 9 -22 9 -30z m618 8 c-3 -7 -5
-2 -5 12 0 14 2 19 5 13 2 -7 2 -19 0 -25z m10 -65 c-3 -10 -5 -4 -5 12 0 17
2 24 5 18 2 -7 2 -21 0 -30z m-2144 2 c-3 -9 -8 -14 -10 -11 -3 3 -2 9 2 15 9
16 15 13 8 -4z m2154 -72 c-3 -10 -5 -4 -5 12 0 17 2 24 5 18 2 -7 2 -21 0
-30z m-2436 -46 c-10 -9 -11 -8 -5 6 3 10 9 15 12 12 3 -3 0 -11 -7 -18z m246
-9 c-3 -8 -6 -5 -6 6 -1 11 2 17 5 13 3 -3 4 -12 1 -19z m2200 -40 c-2 -13 -4
-5 -4 17 -1 22 1 32 4 23 2 -10 2 -28 0 -40z m-1105 -19 c115 -23 176 -49 224
-95 133 -130 132 -343 -3 -494 -118 -131 -302 -143 -471 -30 -125 84 -183 218
-152 351 17 71 81 181 126 216 74 56 169 74 276 52z m-1402 -49 c0 -5 -5 -10
-11 -10 -5 0 -7 5 -4 10 3 6 8 10 11 10 2 0 4 -4 4 -10z m307 -32 c-3 -7 -5
-2 -5 12 0 14 2 19 5 13 2 -7 2 -19 0 -25z m2210 -135 c-2 -32 -3 -8 -3 52 0
61 1 87 3 58 2 -29 2 -78 0 -110z m-2547 119 c0 -5 -7 -17 -15 -28 -14 -18
-14 -17 -4 9 12 27 19 34 19 19z m434 -163 c84 -86 229 -150 298 -131 15 4 8
-10 -29 -56 -52 -64 -100 -152 -104 -187 -6 -76 18 -115 74 -115 51 0 255 134
256 168 2 31 -32 21 -91 -29 -68 -57 -160 -104 -183 -95 -22 8 -19 70 6 119
46 89 139 195 178 203 17 4 56 27 88 53 l58 47 0 -76 c0 -95 26 -151 110 -236
92 -93 209 -144 331 -144 57 0 62 -2 57 -20 -3 -11 -9 -17 -14 -14 -5 3 -6 -3
-2 -12 5 -14 3 -16 -11 -11 -11 4 -15 3 -10 -4 3 -6 15 -8 26 -6 35 9 0 -21
-39 -34 -81 -26 -217 18 -307 102 -48 43 -66 49 -66 20 0 -28 83 -99 158 -134
59 -28 77 -32 154 -32 55 0 84 -4 78 -9 -6 -6 -10 -20 -10 -33 0 -26 -10 -29
-29 -10 -10 10 -11 9 -6 -5 4 -10 11 -18 16 -18 5 0 9 -7 9 -17 0 -15 -2 -15
-19 1 -20 18 -41 15 -41 -6 0 -5 8 -22 19 -36 10 -15 22 -38 26 -52 7 -23 6
-24 -7 -6 -14 18 -15 18 -22 1 -4 -10 -2 -23 4 -29 5 -5 10 -14 10 -18 0 -4
-16 10 -36 32 -116 128 -297 206 -531 230 -60 6 -122 13 -140 16 -41 6 -110
69 -264 240 -105 117 -117 134 -102 143 10 6 13 11 8 11 -6 0 -16 -5 -22 -11
-9 -9 -19 -9 -42 1 -45 18 -134 14 -178 -9 -161 -83 -183 -268 -61 -518 23
-49 44 -92 47 -98 2 -5 -4 -3 -15 5 -18 14 -18 14 -5 -2 7 -10 17 -16 21 -13
4 3 27 -20 50 -50 44 -57 81 -88 215 -178 44 -30 79 -60 77 -66 -1 -7 2 -10 7
-6 6 3 27 -5 48 -18 121 -76 266 -131 413 -156 92 -16 102 -20 80 -29 -14 -6
-19 -11 -12 -11 6 -1 -7 -19 -29 -41 -23 -22 -37 -40 -33 -40 5 0 2 -6 -6 -13
-19 -15 -139 -192 -278 -410 -162 -254 -162 -255 -472 -484 -176 -131 -191
-143 -258 -213 -45 -46 -222 -296 -222 -313 0 -3 -16 -34 -36 -69 -51 -90
-102 -219 -125 -318 -27 -118 -60 -197 -123 -293 -107 -164 -182 -238 -361
-354 -38 -25 -87 -61 -108 -82 -37 -35 -77 -105 -77 -134 0 -8 -33 -53 -72
-99 -223 -259 -327 -378 -369 -423 -25 -27 -66 -72 -90 -100 -24 -27 -51 -57
-59 -65 -8 -8 -49 -53 -90 -100 -41 -47 -79 -90 -85 -96 -212 -234 -345 -314
-521 -314 -180 0 -240 93 -179 276 49 146 212 430 310 540 6 6 55 66 110 134
55 67 164 188 243 268 154 158 164 175 112 213 -30 23 -106 27 -149 9 -54 -22
-88 -110 -61 -161 6 -10 8 -25 3 -32 -10 -16 -21 25 -22 83 -1 56 25 101 72
123 75 36 197 8 197 -46 0 -8 6 -20 14 -26 11 -9 14 -9 12 2 -1 16 32 62 91
125 48 50 197 271 236 347 13 28 37 79 52 115 40 95 135 284 158 314 4 6 27
39 50 72 24 34 63 86 87 115 63 75 172 201 187 217 18 18 73 99 73 107 0 8 49
82 93 140 68 90 75 99 132 170 67 84 100 152 108 221 5 48 39 144 71 204 85
159 118 225 136 270 18 46 88 304 105 386 18 91 25 128 39 214 23 146 38 271
37 309 -2 45 1 41 38 -55 17 -45 55 -115 83 -155 53 -76 193 -219 215 -219 34
0 18 29 -59 103 -120 117 -174 202 -217 341 -28 90 -27 137 4 192 14 24 24 47
24 49 -1 14 27 65 36 65 5 0 3 5 -5 10 -10 6 -11 10 -2 10 6 0 12 7 12 15 0 9
7 18 16 22 8 3 13 12 10 19 -3 9 0 11 12 7 15 -6 15 -5 3 10 -12 15 -8 19 35
39 95 43 201 25 310 -54 44 -31 46 -32 59 -14 13 17 8 22 -53 63 -87 57 -156
77 -241 70 -46 -4 -60 -2 -47 5 10 6 49 41 88 79 38 38 90 83 114 100 24 16
44 35 45 42 0 7 7 -9 16 -35 11 -32 35 -67 77 -109z m-524 3 c0 -5 -7 -17 -15
-28 -14 -18 -14 -17 -4 9 12 27 19 34 19 19z m1897 -59 c-3 -10 -5 -4 -5 12 0
17 2 24 5 18 2 -7 2 -21 0 -30z m730 -60 c-3 -10 -5 -2 -5 17 0 19 2 27 5 18
2 -10 2 -26 0 -35z m-730 5 c-3 -7 -5 -2 -5 12 0 14 2 19 5 13 2 -7 2 -19 0
-25z m-1767 7 c0 -2 -10 -9 -22 -15 -22 -11 -22 -10 -4 4 21 17 26 19 26 11z
m-81 -62 c-18 -21 -37 -42 -41 -47 -5 -6 -8 -7 -8 -3 0 9 70 87 78 87 3 0 -10
-17 -29 -37z m2568 -20 c-3 -10 -5 -4 -5 12 0 17 2 24 5 18 2 -7 2 -21 0 -30z
m-2727 7 c-6 -11 -13 -20 -16 -20 -2 0 0 9 6 20 6 11 13 20 16 20 2 0 0 -9 -6
-20z m200 -23 c0 -2 -10 -12 -22 -23 l-23 -19 19 23 c18 21 26 27 26 19z
m-227 -22 c-3 -9 -8 -14 -10 -11 -3 3 -2 9 2 15 9 16 15 13 8 -4z m2000 -10
c-3 -9 -8 -14 -10 -11 -3 3 -2 9 2 15 9 16 15 13 8 -4z m744 -17 c-3 -7 -5 -2
-5 12 0 14 2 19 5 13 2 -7 2 -19 0 -25z m-2786 -41 c-10 -9 -11 -8 -5 6 3 10
9 15 12 12 3 -3 0 -11 -7 -18z m629 -38 c0 -15 -41 -16 -55 -2 -18 17 -18 19
-4 45 11 20 12 20 35 -8 13 -16 23 -32 24 -35z m1380 31 c-6 -11 -13 -20 -16
-20 -2 0 0 9 6 20 6 11 13 20 16 20 2 0 0 -9 -6 -20z m767 -2 c-3 -8 -6 -5 -6
6 -1 11 2 17 5 13 3 -3 4 -12 1 -19z m-2590 -40 c-3 -8 -6 -5 -6 6 -1 11 2 17
5 13 3 -3 4 -12 1 -19z m-60 -10 c-3 -8 -6 -5 -6 6 -1 11 2 17 5 13 3 -3 4
-12 1 -19z m2640 0 c-3 -8 -6 -5 -6 6 -1 11 2 17 5 13 3 -3 4 -12 1 -19z
m-813 -19 c-16 -17 -38 -35 -49 -41 -11 -6 0 8 25 30 53 49 65 54 24 11z
m-1777 -21 c-3 -7 -5 -2 -5 12 0 14 2 19 5 13 2 -7 2 -19 0 -25z m-237 -8 c-6
-11 -13 -20 -16 -20 -2 0 0 9 6 20 6 11 13 20 16 20 2 0 0 -9 -6 -20z m177
-72 c-2 -18 -4 -4 -4 32 0 36 2 50 4 33 2 -18 2 -48 0 -65z m595 55 c21 -20
38 -40 38 -45 0 -4 -17 -12 -37 -17 -29 -8 -42 -7 -60 4 -13 9 -23 20 -23 26
0 15 29 69 37 69 4 0 24 -17 45 -37z m1138 -33 c-8 -5 -19 -10 -25 -10 -5 0
-3 5 5 10 8 5 20 10 25 10 6 0 3 -5 -5 -10z m-1025 -85 c21 -21 32 -40 29 -49
-6 -17 -64 -56 -82 -56 -17 0 -42 30 -42 51 0 21 40 89 53 89 4 0 23 -16 42
-35z m-982 -30 c-3 -9 -8 -14 -10 -11 -3 3 -2 9 2 15 9 16 15 13 8 -4z m1942
-35 c-3 -5 -12 -10 -18 -10 -7 0 -6 4 3 10 19 12 23 12 15 0z m-1975 -19 c-5
-11 -15 -23 -21 -27 -6 -3 -3 5 6 20 20 30 30 35 15 7z m1133 2 c14 -5 17 -12
12 -32 -9 -38 -29 -55 -58 -47 -32 8 -38 25 -21 65 11 26 18 32 31 26 10 -4
26 -10 36 -12z m1744 -15 c-3 -8 -6 -5 -6 6 -1 11 2 17 5 13 3 -3 4 -12 1 -19z
m-1559 -13 c7 -6 -48 -85 -60 -85 -24 0 -48 34 -48 68 l0 35 52 -7 c29 -4 54
-9 56 -11z m146 -26 c13 -12 -32 -59 -55 -59 -18 0 -49 46 -49 71 0 13 89 3
104 -12z m118 -35 c21 -11 27 -19 20 -26 -12 -12 -62 14 -62 32 0 13 6 13 42
-6z m-1651 -31 c-12 -20 -14 -14 -5 12 4 9 9 14 11 11 3 -2 0 -13 -6 -23z
m653 -9 c19 -18 29 -55 24 -81 -3 -14 -10 -8 -32 25 -15 24 -30 50 -33 58 -7
19 21 18 41 -2z m-539 -83 c-6 -5 -28 -14 -50 -21 -67 -21 -130 -60 -149 -92
-23 -38 -23 -97 0 -140 10 -18 17 -36 16 -40 -1 -5 3 -8 8 -8 6 0 10 -4 10
-10 0 -43 -55 49 -65 110 -8 46 17 110 54 137 24 18 87 50 131 66 25 9 55 8
45 -2z m670 -21 c3 -6 3 -31 -1 -56 l-7 -46 -39 38 -38 39 22 17 c26 20 54 23
63 8z m-864 -23 c-10 -9 -11 -8 -5 6 3 10 9 15 12 12 3 -3 0 -11 -7 -18z m-28
-52 c-3 -9 -8 -14 -10 -11 -3 3 -2 9 2 15 9 16 15 13 8 -4z m1016 -7 c7 -21 4
-98 -5 -98 -13 0 -94 57 -94 67 0 16 49 53 72 53 10 0 22 -10 27 -22z m1048
-35 c-3 -10 -5 -4 -5 12 0 17 2 24 5 18 2 -7 2 -21 0 -30z m873 -10 c-11 -17
-11 -17 -6 0 3 10 6 24 7 30 0 9 2 9 5 0 3 -7 0 -20 -6 -30z m-833 -10 c-3
-10 -5 -4 -5 12 0 17 2 24 5 18 2 -7 2 -21 0 -30z m60 -30 c-3 -10 -5 -4 -5
12 0 17 2 24 5 18 2 -7 2 -21 0 -30z m-1023 21 c12 -5 16 -21 16 -70 0 -35 -3
-64 -7 -64 -5 0 -30 17 -57 37 l-50 36 37 33 c40 37 39 37 61 28z m923 -66
c-3 -7 -5 -2 -5 12 0 14 2 19 5 13 2 -7 2 -19 0 -25z m40 0 c-3 -8 -6 -5 -6 6
-1 11 2 17 5 13 3 -3 4 -12 1 -19z m-819 -30 c13 -18 25 -108 14 -108 -16 0
-101 40 -107 51 -8 11 51 69 70 69 7 0 17 -6 23 -12z m165 -55 c8 -10 18 -40
22 -67 7 -45 6 -49 -11 -44 -11 3 -40 12 -66 19 -27 7 -48 19 -48 26 0 17 59
83 74 83 7 0 20 -8 29 -17z m556 -52 c-7 -10 -21 -24 -33 -31 -15 -9 -12 -3 8
19 34 35 41 39 25 12z m111 11 c0 -5 -7 -17 -15 -28 -14 -18 -14 -17 -4 9 12
27 19 34 19 19z m-2279 -29 c-12 -20 -14 -14 -5 12 4 9 9 14 11 11 3 -2 0 -13
-6 -23z m1739 -14 c6 -23 9 -43 7 -46 -10 -9 -77 10 -77 22 0 15 38 65 50 65
5 0 14 -18 20 -41z m448 1 c-22 -30 -35 -41 -22 -17 9 16 36 47 41 47 2 0 -6
-13 -19 -30z m-2222 -57 c-8 -15 -15 -25 -16 -21 0 12 23 58 27 54 3 -2 -2
-17 -11 -33z m2144 32 c0 -2 -13 -11 -30 -20 -38 -19 -40 -11 -2 9 31 17 32
18 32 11z m130 2 c0 -2 -10 -12 -22 -23 l-23 -19 19 23 c18 21 26 27 26 19z
m-106 -32 c-31 -24 -136 -75 -153 -75 -9 0 10 11 42 24 32 13 72 35 90 49 18
14 34 23 36 21 3 -2 -4 -11 -15 -19z m-327 -81 c-3 -3 -12 -4 -19 -1 -8 3 -5
6 6 6 11 1 17 -2 13 -5z m303 -4 c-8 -5 -19 -10 -25 -10 -5 0 -3 5 5 10 8 5
20 10 25 10 6 0 3 -5 -5 -10z m811 -47 c-12 -20 -14 -14 -5 12 4 9 9 14 11 11
3 -2 0 -13 -6 -23z m-3040 -26 c-10 -9 -11 -8 -5 6 3 10 9 15 12 12 3 -3 0
-11 -7 -18z m3022 -12 c-3 -9 -8 -14 -10 -11 -3 3 -2 9 2 15 9 16 15 13 8 -4z
m-3093 -115 c-6 -11 -13 -20 -16 -20 -2 0 0 9 6 20 6 11 13 20 16 20 2 0 0 -9
-6 -20z m-20 -38 c0 -5 -7 -17 -15 -28 -14 -18 -14 -17 -4 9 12 27 19 34 19
19z m-49 -95 c-10 -9 -11 -8 -5 6 3 10 9 15 12 12 3 -3 0 -11 -7 -18z m-60
-100 c-10 -9 -11 -8 -5 6 3 10 9 15 12 12 3 -3 0 -11 -7 -18z m-125 -215 c-17
-16 -18 -16 -5 5 7 12 15 20 18 17 3 -2 -3 -12 -13 -22z m-63 -97 c-3 -9 -8
-14 -10 -11 -3 3 -2 9 2 15 9 16 15 13 8 -4z m3100 -50 c-3 -9 -8 -14 -10 -11
-3 3 -2 9 2 15 9 16 15 13 8 -4z m-3159 -47 c-19 -32 -64 -90 -64 -84 0 9 61
96 67 96 2 0 1 -6 -3 -12z m-88 -130 c-9 -12 -16 -19 -16 -15 0 11 24 47 28
42 2 -2 -3 -14 -12 -27z m3155 -5 c-12 -20 -14 -14 -5 12 4 9 9 14 11 11 3 -2
0 -13 -6 -23z m-30 -70 c-12 -20 -14 -14 -5 12 4 9 9 14 11 11 3 -2 0 -13 -6
-23z m-3181 -3 c-6 -11 -13 -20 -16 -20 -2 0 0 9 6 20 6 11 13 20 16 20 2 0 0
-9 -6 -20z m-50 -80 c-12 -16 -24 -30 -26 -30 -3 0 4 14 16 30 12 17 24 30 26
30 3 0 -4 -13 -16 -30z m-40 -54 c0 -2 -8 -10 -17 -17 -16 -13 -17 -12 -4 4
13 16 21 21 21 13z m126 -45 c-3 -4 -19 -11 -36 -15 -39 -7 -90 -57 -90 -88 0
-13 9 -38 20 -56 23 -37 24 -42 10 -42 -16 0 -40 57 -40 97 1 45 25 77 72 98
37 16 72 20 64 6z m-286 -181 c-11 -16 -26 -33 -32 -36 -7 -4 1 9 16 29 34 44
46 50 16 7z m2795 -165 c-4 -128 -76 -184 -204 -159 -17 4 -31 11 -31 16 0 6
10 7 23 3 55 -17 78 -16 121 4 59 29 78 70 76 159 -3 81 0 95 10 62 4 -14 7
-52 5 -85z m-2885 45 c-11 -16 -26 -33 -32 -36 -7 -4 1 9 16 29 34 44 46 50
16 7z m-180 -230 c-6 -11 -15 -20 -20 -20 -6 0 -2 9 7 20 10 11 19 20 21 20 1
0 -2 -9 -8 -20z m3364 -15 c-9 -14 -18 -25 -21 -25 -5 0 5 18 20 38 17 22 18
13 1 -13z m-3424 -55 c0 -5 -5 -10 -11 -10 -5 0 -7 5 -4 10 3 6 8 10 11 10 2
0 4 -4 4 -10z m3365 -50 c-9 -16 -18 -30 -21 -30 -2 0 2 14 11 30 9 17 18 30
21 30 2 0 -2 -13 -11 -30z m-3425 -23 c0 -2 -10 -12 -22 -23 l-23 -19 19 23
c18 21 26 27 26 19z m3390 -37 c-6 -11 -13 -20 -16 -20 -2 0 0 9 6 20 6 11 13
20 16 20 2 0 0 -9 -6 -20z m-3520 -103 c0 -1 -26 -27 -57 -57 l-58 -55 55 58
c50 53 60 62 60 54z m-170 -180 l-34 -32 30 36 c16 20 31 34 33 32 3 -2 -10
-18 -29 -36z m3533 18 c-3 -9 -8 -14 -10 -11 -3 3 -2 9 2 15 9 16 15 13 8 -4z
m-3573 -68 c0 -2 -15 -16 -32 -33 l-33 -29 29 33 c28 30 36 37 36 29z m3500
-57 c-11 -22 -23 -40 -25 -40 -3 0 4 18 15 40 11 22 23 40 25 40 3 0 -4 -18
-15 -40z m-3589 -47 c-39 -52 -48 -63 -55 -63 -4 0 10 20 31 45 41 50 56 60
24 18z m-71 -94 c-7 -11 -14 -18 -17 -15 -3 3 0 12 7 21 18 21 23 19 10 -6z
m-44 -57 c-17 -16 -18 -16 -5 5 7 12 15 20 18 17 3 -2 -3 -12 -13 -22z m3574
-22 c-6 -11 -13 -20 -16 -20 -2 0 0 9 6 20 6 11 13 20 16 20 2 0 0 -9 -6 -20z
m-3630 -54 c0 -2 -8 -10 -17 -17 -16 -13 -17 -12 -4 4 13 16 21 21 21 13z
m3590 -20 c0 -2 -8 -10 -17 -17 -16 -13 -17 -12 -4 4 13 16 21 21 21 13z
m-3620 -20 c0 -2 -8 -10 -17 -17 -16 -13 -17 -12 -4 4 13 16 21 21 21 13z
m186 -47 c5 -9 -6 -10 -39 -5 -79 12 -175 -48 -193 -120 -9 -35 22 -100 65
-135 19 -15 32 -31 29 -34 -9 -9 -77 54 -95 88 -20 39 -13 105 16 145 30 42
95 72 158 72 28 0 55 -5 59 -11z m3384 -9 c-6 -11 -13 -20 -16 -20 -2 0 0 9 6
20 6 11 13 20 16 20 2 0 0 -9 -6 -20z m-32 -55 c-6 -14 -13 -23 -15 -21 -5 5
15 46 22 46 3 0 -1 -11 -7 -25z m-3630 -15 c-7 -10 -14 -17 -17 -15 -4 4 18
35 25 35 2 0 -1 -9 -8 -20z m3573 -73 c-10 -9 -11 -8 -5 6 3 10 9 15 12 12 3
-3 0 -11 -7 -18z m-21 -37 c-6 -11 -13 -20 -16 -20 -2 0 0 9 6 20 6 11 13 20
16 20 2 0 0 -9 -6 -20z m-3644 -18 c-18 -16 -18 -16 -6 6 6 13 14 21 18 18 3
-4 -2 -14 -12 -24z m3588 -67 c-9 -14 -18 -25 -21 -25 -5 0 5 18 20 38 17 22
18 13 1 -13z m-3644 -19 c0 -2 -8 -10 -17 -17 -16 -13 -17 -12 -4 4 13 16 21
21 21 13z m-55 -86 c-9 -16 -18 -30 -21 -30 -2 0 2 14 11 30 9 17 18 30 21 30
2 0 -2 -13 -11 -30z m3631 2 c-17 -16 -18 -16 -5 5 7 12 15 20 18 17 3 -2 -3
-12 -13 -22z m-45 -65 c-10 -9 -11 -8 -5 6 3 10 9 15 12 12 3 -3 0 -11 -7 -18z
m-46 -55 l-28 -27 24 31 c13 17 26 30 28 27 3 -2 -8 -16 -24 -31z m-35 -45 c0
-2 -15 -16 -32 -33 l-33 -29 29 33 c28 30 36 37 36 29z m-3612 -42 c-6 -14
-13 -23 -15 -21 -5 5 15 46 22 46 3 0 -1 -11 -7 -25z m3532 -48 c0 -2 -10 -12
-22 -23 l-23 -19 19 23 c18 21 26 27 26 19z m-60 -70 c0 -2 -17 -19 -37 -38
l-38 -34 34 38 c33 34 41 42 41 34z m-3593 -199 c-3 -8 -6 -5 -6 6 -1 11 2 17
5 13 3 -3 4 -12 1 -19z m3413 -1 c0 -2 -15 -16 -32 -33 l-33 -29 29 33 c28 30
36 37 36 29z m-3433 -79 c-3 -8 -6 -5 -6 6 -1 11 2 17 5 13 3 -3 4 -12 1 -19z
m3373 8 c0 -2 -7 -9 -15 -16 -13 -11 -14 -10 -9 4 5 14 24 23 24 12z m-740
-66 c45 -88 3 -208 -87 -245 -68 -29 -177 -14 -212 28 -18 23 -10 21 46 -9
117 -63 253 18 253 151 0 30 -6 59 -15 71 -14 18 -20 44 -10 44 2 0 14 -18 25
-40z m651 -27 c-5 -10 -24 -31 -42 -48 -29 -27 -29 -25 7 17 42 51 50 58 35
31z m-3324 -100 c-3 -10 -5 -4 -5 12 0 17 2 24 5 18 2 -7 2 -21 0 -30z m3173
-66 c-30 -29 -45 -41 -35 -28 32 40 80 87 85 83 2 -1 -20 -26 -50 -55z m-3183
-54 c-2 -16 -4 -3 -4 27 0 30 2 43 4 28 2 -16 2 -40 0 -55z m3114 -16 c-10 -9
-11 -8 -5 6 3 10 9 15 12 12 3 -3 0 -11 -7 -18z m-41 -40 c0 -2 -10 -12 -22
-23 l-23 -19 19 23 c18 21 26 27 26 19z m-70 -80 c0 -2 -12 -14 -27 -28 l-28
-24 24 28 c23 25 31 32 31 24z m-3003 -134 c-2 -16 -4 -3 -4 27 0 30 2 43 4
28 2 -16 2 -40 0 -55z m2933 64 c0 -1 -24 -25 -52 -52 l-53 -50 50 53 c46 48
55 57 55 49z m-2923 -149 c-3 -7 -5 -2 -5 12 0 14 2 19 5 13 2 -7 2 -19 0 -25z
m2678 -88 c-21 -22 -43 -40 -48 -40 -8 0 73 79 83 80 2 0 -14 -18 -35 -40z
m-2615 -85 c0 -5 -5 -3 -10 5 -5 8 -10 20 -10 25 0 6 5 3 10 -5 5 -8 10 -19
10 -25z m2540 22 c0 -2 -10 -12 -22 -23 l-23 -19 19 23 c18 21 26 27 26 19z
m-2512 -82 c-3 -3 -9 2 -12 12 -6 14 -5 15 5 6 7 -7 10 -15 7 -18z m2384 -37
c-7 -7 -12 -8 -12 -2 0 14 12 26 19 19 2 -3 -1 -11 -7 -17z m-2352 -3 c7 -9 8
-15 2 -15 -5 0 -12 7 -16 15 -3 8 -4 15 -2 15 2 0 9 -7 16 -15z m2288 -44
c-18 -16 -35 -27 -38 -25 -5 5 51 53 63 54 4 0 -7 -13 -25 -29z m-2247 -3 c18
-20 23 -28 16 -28 -2 0 -14 11 -27 25 -13 14 -20 25 -15 25 4 0 16 -10 26 -22z
m2179 -43 c0 -2 -10 -9 -22 -15 -22 -11 -22 -10 -4 4 21 17 26 19 26 11z
m-2074 -53 c-4 -3 -14 2 -24 12 -16 18 -16 18 6 6 13 -6 21 -14 18 -18z m1994
8 c-8 -5 -19 -10 -25 -10 -5 0 -3 5 5 10 8 5 20 10 25 10 6 0 3 -5 -5 -10z
m-1962 -35 c-3 -3 -9 2 -12 12 -6 14 -5 15 5 6 7 -7 10 -15 7 -18z m1752 -64
c-8 -5 -26 -11 -40 -15 -21 -5 -20 -3 5 9 32 15 60 20 35 6z m-1403 -87 c-3
-3 -12 -4 -19 -1 -8 3 -5 6 6 6 11 1 17 -2 13 -5z m1080 -30 c-3 -3 -12 -4
-19 -1 -8 3 -5 6 6 6 11 1 17 -2 13 -5z m-44 -11 c-7 -2 -19 -2 -25 0 -7 3 -2
5 12 5 14 0 19 -2 13 -5z m-736 -39 c-3 -3 -12 -4 -19 -1 -8 3 -5 6 6 6 11 1
17 -2 13 -5z m576 -1 c-7 -2 -19 -2 -25 0 -7 3 -2 5 12 5 14 0 19 -2 13 -5z
m-505 -10 c-10 -2 -26 -2 -35 0 -10 3 -2 5 17 5 19 0 27 -2 18 -5z m445 0 c-7
-2 -21 -2 -30 0 -10 3 -4 5 12 5 17 0 24 -2 18 -5z m-165 -10 c-43 -2 -113 -2
-155 0 -43 1 -8 3 77 3 85 0 120 -2 78 -3z"/>
<path d="M6546 7743 c-6 -14 -5 -15 5 -6 7 7 10 15 7 18 -3 3 -9 -2 -12 -12z"/>
<path d="M6571 7634 c19 -22 36 -39 39 -37 2 2 -13 20 -35 41 l-39 37 35 -41z"/>
<path d="M6090 7666 c0 -2 11 -6 25 -8 13 -3 22 -1 19 3 -5 9 -44 13 -44 5z"/>
<path d="M6295 7580 c3 -5 8 -10 11 -10 2 0 4 5 4 10 0 6 -5 10 -11 10 -5 0
-7 -4 -4 -10z"/>
<path d="M5859 7438 c-7 -25 -3 -40 14 -55 22 -18 22 -18 6 2 -9 11 -15 28
-14 38 3 13 -2 26 -6 15z"/>
<path d="M5940 7291 c0 -10 19 -25 25 -20 1 2 -3 10 -11 17 -8 7 -14 8 -14 3z"/>
<path d="M6575 7029 c-4 -6 -5 -12 -2 -15 2 -3 7 2 10 11 7 17 1 20 -8 4z"/>
<path d="M5457 7210 c-4 -15 2 -24 24 -36 32 -16 54 -10 45 12 -3 7 0 16 6 20
15 9 -11 24 -43 24 -18 0 -28 -6 -32 -20z"/>
<path d="M6256 6841 c-3 -5 -15 -7 -26 -4 -14 4 -20 0 -20 -11 0 -9 -4 -16
-10 -16 -15 0 -12 -12 10 -38 13 -16 25 -21 42 -17 19 5 23 13 25 50 1 42 -8
58 -21 36z"/>
<path d="M5141 6961 c-18 -11 -7 -70 24 -130 40 -79 101 -130 191 -161 l59
-21 17 22 c21 24 16 39 -10 32 -30 -7 -127 35 -165 74 -42 41 -77 108 -77 145
0 30 -20 50 -39 39z"/>
<path d="M5225 6852 c4 -4 12 -7 18 -7 7 0 11 -10 11 -22 -1 -13 2 -20 6 -18
19 12 1 47 -26 51 -9 1 -13 -1 -9 -4z"/>
<path d="M5136 6792 c-3 -5 1 -9 9 -9 8 0 12 4 9 9 -3 4 -7 8 -9 8 -2 0 -6 -4
-9 -8z"/>
<path d="M5311 6764 c0 -11 3 -14 6 -6 3 7 2 16 -1 19 -3 4 -6 -2 -5 -13z"/>
<path d="M5346 6772 c-3 -5 1 -9 9 -9 8 0 12 4 9 9 -3 4 -7 8 -9 8 -2 0 -6 -4
-9 -8z"/>
<path d="M5726 6752 c-3 -4 4 -9 15 -9 23 -2 25 3 4 10 -8 4 -16 3 -19 -1z"/>
<path d="M4900 6696 c7 -7 13 -7 20 0 6 6 3 10 -10 10 -13 0 -16 -4 -10 -10z"/>
<path d="M5480 6700 c-9 -6 -10 -10 -3 -10 6 0 15 5 18 10 8 12 4 12 -15 0z"/>
<path d="M5715 6620 c3 -5 8 -10 11 -10 2 0 4 5 4 10 0 6 -5 10 -11 10 -5 0
-7 -4 -4 -10z"/>
<path d="M5758 6593 c7 -3 16 -2 19 1 4 3 -2 6 -13 5 -11 0 -14 -3 -6 -6z"/>
<path d="M5634 6545 c1 -8 6 -18 11 -22 4 -4 5 -2 1 5 -4 6 -2 12 4 12 6 0 8
5 5 10 -9 15 -24 12 -21 -5z"/>
<path d="M5495 6509 c-4 -6 -5 -12 -2 -15 2 -3 7 2 10 11 7 17 1 20 -8 4z"/>
<path d="M5886 6487 c3 -10 9 -15 12 -12 3 3 0 11 -7 18 -10 9 -11 8 -5 -6z"/>
<path d="M6020 6366 c0 -2 8 -10 18 -17 15 -13 16 -12 3 4 -13 16 -21 21 -21
13z"/>
<path d="M5900 6356 c0 -2 8 -10 18 -17 15 -13 16 -12 3 4 -13 16 -21 21 -21
13z"/>
<path d="M5460 6346 c0 -2 8 -10 18 -17 15 -13 16 -12 3 4 -13 16 -21 21 -21
13z"/>
<path d="M5952 6304 c10 -10 20 -16 22 -13 3 3 -5 11 -17 18 -21 13 -21 12 -5
-5z"/>
<path d="M6026 6247 c3 -10 9 -15 12 -12 3 3 0 11 -7 18 -10 9 -11 8 -5 -6z"/>
<path d="M5945 6241 c-3 -5 -2 -12 3 -15 5 -3 9 1 9 9 0 17 -3 19 -12 6z"/>
<path d="M6030 6210 c11 -7 11 -10 2 -10 -7 0 -10 -5 -6 -11 4 -8 9 -7 15 2 9
15 3 29 -14 29 -7 0 -6 -4 3 -10z"/>
<path d="M4820 6156 c0 -8 4 -17 9 -20 5 -4 7 3 4 14 -6 23 -13 26 -13 6z"/>
<path d="M4943 5867 c0 -8 6 -14 14 -14 9 0 10 4 2 14 -6 7 -12 13 -14 13 -1
0 -2 -6 -2 -13z"/>
<path d="M5156 5782 c-3 -5 1 -9 9 -9 8 0 12 4 9 9 -3 4 -7 8 -9 8 -2 0 -6 -4
-9 -8z"/>
<path d="M5605 5549 c-3 -4 2 -6 10 -5 21 3 28 13 10 13 -9 0 -18 -4 -20 -8z"/>
<path d="M6728 713 c6 -2 18 -2 25 0 6 3 1 5 -13 5 -14 0 -19 -2 -12 -5z"/>
</g>
</svg>
